<svg width="1280" height="886" viewBox="0 0 1280 886" fill="none" xmlns="http://www.w3.org/2000/svg">
<g clip-path="url(#clip0_203_544)">
<mask id="mask0_203_544" style="mask-type:alpha" maskUnits="userSpaceOnUse" x="-237" y="0" width="1755" height="886">
<path d="M1518 0H-237V886H1518V0Z" fill="url(#paint0_radial_203_544)"/>
</mask>
<g mask="url(#mask0_203_544)">
<g opacity="0.4">
<path d="M-394.333 282.208L541.176 442.267" stroke="#5D5D5D" stroke-opacity="0.75" stroke-width="1.5" stroke-dasharray="25.83 25.83"/>
<path d="M-391.048 458.772H547.277" stroke="#5D5D5D" stroke-opacity="0.75" stroke-width="1.5"/>
<path d="M-391.048 631.496L549.152 471.439" stroke="#5D5D5D" stroke-opacity="0.75" stroke-width="1.5" stroke-dasharray="25.83 25.83"/>
<path d="M1671.01 282.208L722.83 442.267" stroke="#5D5D5D" stroke-opacity="0.75" stroke-width="1.5"/>
<path d="M1669.13 459.923H724.71" stroke="#5D5D5D" stroke-opacity="0.75" stroke-width="1.5" stroke-dasharray="25.83 25.83"/>
<path d="M1669.14 638.022L726.115 476.428" stroke="#5D5D5D" stroke-opacity="0.75" stroke-width="1.5"/>
<path d="M1299.72 831.091L709.218 491.783" stroke="#5D5D5D" stroke-opacity="0.75" stroke-width="1.5" stroke-dasharray="25.83 25.83"/>
<path d="M915.755 816.889L654.769 482.954" stroke="#5D5D5D" stroke-opacity="0.75" stroke-width="1.5"/>
<path d="M359.518 819.575L612.523 485.257" stroke="#5D5D5D" stroke-opacity="0.75" stroke-width="1.5" stroke-dasharray="25.83 25.83"/>
<path d="M-0.979004 806.911L569.341 489.096" stroke="#5D5D5D" stroke-opacity="0.75" stroke-width="1.5"/>
<path d="M-24.4487 94.1301L576.847 426.914" stroke="#5D5D5D" stroke-opacity="0.75" stroke-width="1.5" stroke-dasharray="25.83 25.83"/>
<path d="M359.518 101.807L617.218 433.439" stroke="#5D5D5D" stroke-opacity="0.75" stroke-width="1.5"/>
<path d="M635.992 104.11V430.753" stroke="#5D5D5D" stroke-opacity="0.75" stroke-width="1.5"/>
<path d="M911.059 106.797L648.668 442.268" stroke="#5D5D5D" stroke-opacity="0.75" stroke-width="1.5"/>
<path d="M1277.66 107.948L681.054 433.439" stroke="#5D5D5D" stroke-opacity="0.75" stroke-width="1.5" stroke-dasharray="25.83 25.83"/>
<path d="M767.894 410.034H504.092C499.172 410.034 495.184 413.295 495.184 417.318V499.459C495.184 503.482 499.172 506.743 504.092 506.743H767.894C772.813 506.743 776.802 503.482 776.802 499.459V417.318C776.802 413.295 772.813 410.034 767.894 410.034Z" stroke="#5D5D5D" stroke-opacity="0.75" stroke-width="1.5"/>
<path d="M815.773 393.145H456.214C451.295 393.145 447.306 396.406 447.306 400.429V516.347C447.306 520.37 451.295 523.632 456.214 523.632H815.773C820.693 523.632 824.681 520.37 824.681 516.347V400.429C824.681 396.406 820.693 393.145 815.773 393.145Z" stroke="#5D5D5D" stroke-opacity="0.75" stroke-width="1.5"/>
<path d="M879.608 371.65H393.314C388.394 371.65 384.406 374.912 384.406 378.935V537.842C384.406 541.865 388.394 545.126 393.314 545.126H879.608C884.528 545.126 888.516 541.865 888.516 537.842V378.935C888.516 374.912 884.528 371.65 879.608 371.65Z" stroke="#5D5D5D" stroke-opacity="0.75" stroke-width="1.5"/>
<path d="M962.222 343.247H309.762C304.842 343.247 300.854 346.508 300.854 350.531V566.246C300.854 570.269 304.842 573.53 309.762 573.53H962.222C967.142 573.53 971.13 570.269 971.13 566.246V350.531C971.13 346.508 967.142 343.247 962.222 343.247Z" stroke="#5D5D5D" stroke-opacity="0.75" stroke-width="1.5"/>
<path d="M1049.53 313.307H225.27C220.35 313.307 216.362 316.568 216.362 320.592V596.184C216.362 600.207 220.35 603.469 225.27 603.469H1049.53C1054.45 603.469 1058.44 600.207 1058.44 596.184V320.592C1058.44 316.568 1054.45 313.307 1049.53 313.307Z" stroke="#5D5D5D" stroke-opacity="0.75" stroke-width="1.5"/>
<path d="M1151.86 277.227H119.187C114.267 277.227 110.279 280.488 110.279 284.512V632.265C110.279 636.288 114.267 639.549 119.187 639.549H1151.86C1156.78 639.549 1160.77 636.288 1160.77 632.265V284.512C1160.77 280.488 1156.78 277.227 1151.86 277.227Z" stroke="#5D5D5D" stroke-opacity="0.75" stroke-width="1.5"/>
<path d="M1280.47 232.703H-11.3066C-16.2265 232.703 -20.2148 235.964 -20.2148 239.987V676.792C-20.2148 680.815 -16.2265 684.076 -11.3066 684.076H1280.47C1285.39 684.076 1289.38 680.815 1289.38 676.792V239.987C1289.38 235.964 1285.39 232.703 1280.47 232.703Z" stroke="#5D5D5D" stroke-opacity="0.75" stroke-width="1.5"/>
<path d="M1446.64 175.895H-175.595C-180.515 175.895 -184.503 179.156 -184.503 183.179V733.595C-184.503 737.618 -180.515 740.88 -175.595 740.88H1446.64C1451.56 740.88 1455.55 737.618 1455.55 733.595V183.179C1455.55 179.156 1451.56 175.895 1446.64 175.895Z" stroke="#5D5D5D" stroke-opacity="0.75" stroke-width="1.5"/>
<path d="M1621.26 116.017H-352.089C-357.009 116.017 -360.997 119.278 -360.997 123.301V793.474C-360.997 797.497 -357.009 800.759 -352.089 800.759H1621.26C1626.18 800.759 1630.17 797.497 1630.17 793.474V123.301C1630.17 119.278 1626.18 116.017 1621.26 116.017Z" stroke="#5D5D5D" stroke-opacity="0.75" stroke-width="1.5"/>
<path d="M-397.62 107.181L545.397 425.379" stroke="#5D5D5D" stroke-opacity="0.75" stroke-width="1.5"/>
<path d="M-416.865 825.333L534.135 491.398" stroke="#5D5D5D" stroke-opacity="0.75" stroke-width="1.5"/>
<path d="M1674.77 100.655L717.669 429.601" stroke="#5D5D5D" stroke-opacity="0.75" stroke-width="1.5"/>
<path d="M1695.89 823.031L719.074 483.337" stroke="#5D5D5D" stroke-opacity="0.75" stroke-width="1.5"/>
<path d="M635.992 810.747V477.964" stroke="#5D5D5D" stroke-opacity="0.75" stroke-width="1.5"/>
</g>
</g>
</g>
<defs>
<radialGradient id="paint0_radial_203_544" cx="0" cy="0" r="1" gradientUnits="userSpaceOnUse" gradientTransform="translate(640.5 443) rotate(90) scale(443 877.5)">
<stop stop-color="#D9D9D9"/>
<stop offset="1" stop-color="#737373" stop-opacity="0"/>
</radialGradient>
<clipPath id="clip0_203_544">
<rect width="1755" height="886" fill="white" transform="translate(-237)"/>
</clipPath>
</defs>
</svg>
